Coordinates
version=1
nRows=7
nColumns=42
inDegrees=yes

Units are S.I. units (second, meters, Newtons, ...)
If the header above contains a line with 'inDegrees', this indicates whether rotational values are in degrees (yes) or radians (no).

endheader
time	pelvis_tilt	pelvis_list	pelvis_rotation	pelvis_tx	pelvis_ty	pelvis_tz	hip_flexion_r	hip_adduction_r	hip_rotation_r	knee_angle_r	knee_adduction_r	knee_angle_r_beta	ankle_angle_r	subtalar_angle_r	mtp_angle_r	hip_flexion_l	hip_adduction_l	hip_rotation_l	knee_angle_l	knee_adduction_l	knee_angle_l_beta	ankle_angle_l	subtalar_angle_l	mtp_angle_l	lumbar_extension	lumbar_bending	lumbar_rotation	arm_flex_r	arm_add_r	arm_rot_r	elbow_flex_r	pro_sup_r	wrist_flex_r	wrist_dev_r	arm_flex_l	arm_add_l	arm_rot_l	elbow_flex_l	pro_sup_l	wrist_flex_l	wrist_dev_l
      0.00000000	      3.26374376	     -0.08594531	     -1.04301665	     -2.10646075	      0.97553274	      0.26722612	     15.47417746	     -6.89179907	     -6.90910152	     37.76102209	      6.52445217	      0.65905416	      9.82276595	      3.20414644	     -9.59480943	     -6.86677512	      1.65396302	     -5.37050048	      3.35026543	      0.14963085	      0.05847316	      9.07035227	     16.21714548	     -9.59480943	     -9.22482388	      0.28874891	     -2.55007482	     -7.98944472	    -12.08535456	      8.54008251	     27.62452451	     90.00000001	      0.00000000	      0.00000000	      8.85167310	    -17.56026625	     21.80492561	     30.72672133	     90.00000001	      0.00000000	      0.00000000
      0.01000000	      3.14606567	      0.10567120	     -1.09307393	     -2.10106189	      0.97477647	      0.26721130	     16.04556189	     -7.08101587	     -7.41730925	     36.62576432	      6.36707110	      0.63924018	      9.84697493	      3.21153811	     -9.57762124	     -7.08513152	      1.90669973	     -5.54002035	      3.36722415	      0.10138604	      0.05876915	      9.32049365	     16.18664838	     -9.57762124	     -9.05120500	      0.16004359	     -2.49036423	     -8.29579896	    -12.06093753	      8.58989892	     27.50418247	     90.00000001	      0.00000000	      0.00000000	      9.15765415	    -17.60369803	     21.74324929	     31.07698106	     90.00000001	      0.00000000	      0.00000000
      0.02000000	      3.37198343	     -0.10764525	     -0.83694939	     -2.09398824	      0.97438491	      0.26720503	     15.95831655	     -6.80049751	     -8.29350459	     34.58508641	      6.15478609	      0.60362363	      9.87205660	      3.70674767	     -9.51456772	     -7.86604067	      1.64765439	     -5.28121010	      3.24437673	      0.10737623	      0.05662506	      9.88912870	     16.51334568	     -9.51456772	     -9.25290500	      0.51845094	     -2.79571558	     -8.45021862	    -12.02387879	      8.64588056	     27.15993603	     90.00000001	      0.00000000	      0.00000000	      9.34530623	    -17.79095031	     21.70854933	     31.94031607	     90.00000001	      0.00000000	      0.00000000
      0.03000000	      3.21432889	      0.18321924	     -0.89719343	     -2.08598518	      0.97315161	      0.26736595	     16.68355874	     -7.04577379	     -9.05056827	     32.79042874	      5.92341930	      0.57230094	      9.79539024	      3.88452118	     -9.49487248	     -8.21058586	      2.01848873	     -5.52623328	      3.26538605	      0.02227482	      0.05699174	     10.27081554	     16.48310238	     -9.49487248	     -9.01355005	      0.30080323	     -2.72043269	     -8.87843011	    -11.93753170	      8.67448752	     26.98425928	     90.00000001	      0.00000000	      0.00000000	      9.76931131	    -17.88431420	     21.61773357	     32.46996384	     90.00000001	      0.00000000	      0.00000000
      0.04000000	      3.65680550	     -0.16542663	     -0.55465833	     -2.07669758	      0.97263067	      0.26762472	     16.24230123	     -6.58103046	    -10.18808643	     29.96967556	      5.72425597	      0.52306951	      9.67447844	      4.89158283	     -9.42143635	     -9.40682404	      1.53040671	     -5.34287732	      3.07506384	      0.11232101	      0.05366999	     10.98097702	     17.00357749	     -9.42143635	     -9.42897690	      0.82284791	     -3.07908687	     -9.04793774	    -11.81229317	      8.53048961	     26.47816433	     90.00000001	      0.00000000	      0.00000000	     10.00686578	    -18.15092807	     21.60350315	     33.64601320	     90.00000001	      0.00000000	      0.00000000
      0.05000000	      3.45870965	      0.15104588	     -0.56277471	     -2.06740749	      0.97102122	      0.26776702	     16.89076976	     -6.82065085	    -10.84353771	     27.57987547	      5.60000414	      0.48135963	      9.42502354	      5.46636526	     -9.39617167	     -9.80058728	      1.95612204	     -5.44612350	      3.07705015	     -0.05461580	      0.05370466	     11.51719257	     17.10278456	     -9.39617167	     -9.15237548	      0.61830701	     -3.15948178	     -9.39402098	    -11.72376305	      8.52098582	     26.24493698	     90.00000001	      0.00000000	      0.00000000	     10.34905658	    -18.31832017	     21.50841664	     34.40614842	     90.00000001	      0.00000000	      0.00000000
      0.06000000	      3.88927936	     -0.08136687	     -0.28115286	     -2.05719014	      0.97009106	      0.26823519	     16.41863875	     -6.46296486	    -11.86864705	     24.56823528	      5.52432323	      0.42879660	      9.27508926	      6.39017316	     -9.33511653	    -11.00594182	      1.55280301	     -5.39557209	      2.96991480	      0.09555798	      0.05183479	     12.19520040	     17.53505452	     -9.33511653	     -9.54123153	      1.00948983	     -3.45715701	     -9.56499488	    -11.56275235	      8.35827513	     25.64244293	     90.00000001	      0.00000000	      0.00000000	     10.52411618	    -18.61287255	     21.45230901	     35.74407202	     90.00000001	      0.00000000	      0.00000000
